<svg width="48" height="35" viewBox="0 0 48 35" fill="none" xmlns="http://www.w3.org/2000/svg">
<rect x="0.25" y="0.25" width="47.5" height="33.7857" rx="1.75" fill="white" stroke="#F5F5F5" stroke-width="0.5"/>
<mask id="mask0_3032_1797" style="mask-type:luminance" maskUnits="userSpaceOnUse" x="0" y="0" width="48" height="35">
<rect x="0.25" y="0.25" width="47.5" height="33.7857" rx="1.75" fill="white" stroke="white" stroke-width="0.5"/>
</mask>
<g mask="url(#mask0_3032_1797)">
<rect x="34.2861" width="13.7143" height="34.2857" fill="#FF3131"/>
<path fill-rule="evenodd" clip-rule="evenodd" d="M0 34.2857H13.7143V0H0V34.2857Z" fill="#FF3131"/>
<path fill-rule="evenodd" clip-rule="evenodd" d="M27.0642 16.3641C26.831 16.5973 26.4369 16.3864 26.5016 16.063L27.4286 11.4283L25.1429 12.5712L24 9.14258L22.8571 12.5712L20.5714 11.4283L21.4984 16.063C21.5631 16.3864 21.169 16.5973 20.9358 16.3641L19.6643 15.0926C19.5341 14.9624 19.323 14.9624 19.1929 15.0926L18.2857 15.9997L16 14.8569L17.1429 17.1426L16.2357 18.0497C16.1055 18.1799 16.1055 18.391 16.2357 18.5211L19.4286 21.714H22.8571L23.4286 25.1426H24.5714L25.1429 21.714H28.5714L31.7643 18.5211C31.8945 18.391 31.8945 18.1799 31.7643 18.0497L30.8571 17.1426L32 14.8569L29.7143 15.9997L28.8071 15.0926C28.677 14.9624 28.4659 14.9624 28.3357 15.0926L27.0642 16.3641Z" fill="#FF3131"/>
</g>
</svg>
