<svg width="306" height="72" viewBox="0 0 306 72" fill="none" xmlns="http://www.w3.org/2000/svg">
<g clip-path="url(#clip0_2002_1735)">
<path d="M42.8335 1.04178C35.8701 1.82824 27.6839 6.4159 22.8605 12.2816C18.6485 17.3608 16.3727 23.2264 16.1009 29.813C15.7273 38.1036 17.6974 43.9037 23.438 51.2767C24.9325 53.2101 27.2423 56.356 28.601 58.2238C29.9597 60.1244 31.2166 61.6318 31.4204 61.5662C31.6242 61.5007 31.828 60.7798 31.828 59.9933C31.8619 59.2069 31.8959 58.4532 31.9299 58.2893C31.9299 58.1582 32.881 58.4859 34.0019 59.043C39.4028 61.6645 47.1814 62.6804 53.4993 61.5335C55.1298 61.2058 56.5225 61.0092 56.5564 61.0747C56.5904 61.1402 57.066 62.5821 57.6094 64.2861C58.1189 65.9901 58.5945 67.4647 58.6624 67.5302C59.0021 67.8907 60.2249 66.285 60.8364 64.7121C61.4138 63.2375 61.4818 62.6148 61.21 61.1402L60.9383 59.3379L62.3309 58.6498C65.9995 56.8475 70.2114 53.505 72.6571 50.4575C77.005 44.9851 79.077 39.5782 79.3827 32.6639C79.8243 23.9146 76.5974 15.8534 70.2114 9.72558C65.5239 5.23622 61.9913 3.27007 55.9111 1.82824C52.0727 0.910706 46.7737 0.615784 42.8335 1.04178ZM52.82 2.1887C54.2806 2.41808 55.5374 2.71301 55.6393 2.81131C55.7412 2.87685 55.5714 3.30285 55.2657 3.72884C54.0428 5.40007 55.1977 7.59559 57.2698 7.59559C58.6285 7.59559 59.138 8.18544 60.2589 10.9708C61.3798 13.6906 61.3798 14.0511 60.3269 15.9845C58.7643 18.8354 59.3078 21.1948 62.1951 23.7507L64.1992 25.553L62.4328 26.7C61.4478 27.3553 59.3078 28.7644 57.6434 29.8458C56.013 30.9599 54.5184 31.8447 54.3485 31.8447C54.1787 31.8447 53.4314 31.6153 52.6841 31.3204C51.2575 30.7633 50.9857 30.239 51.8349 29.5509C53.2276 28.4367 51.5632 25.9463 49.4572 25.9463C48.7778 25.9463 47.8947 25.7824 47.521 25.5858C46.5699 25.0943 44.8036 23.0954 44.2941 21.9484C43.9205 21.1292 43.7167 21.0309 42.358 21.0309C40.9992 21.0309 40.7954 20.9326 40.1501 19.884C39.4707 18.7698 39.4028 18.7371 37.4666 18.7371C36.0739 18.7371 35.2927 18.9009 35.0209 19.2286C34.7152 19.5563 33.934 19.7201 32.4394 19.7201C30.2655 19.7201 30.2315 19.7201 30.0277 18.7371C29.8239 17.6557 28.8048 16.7709 27.7858 16.7709C26.9366 16.7709 27.1744 16.1811 28.3293 15.5257C29.2125 15.0014 29.3483 15.0014 30.2994 15.5257C30.8769 15.8534 31.6242 16.1155 31.9299 16.1155C32.5753 16.1155 33.4245 15.3291 33.7641 14.4443C33.9 13.9856 34.5454 13.8545 37.025 13.7889C40.5577 13.6251 41.1011 13.3302 42.8675 10.2499C43.4789 9.23405 44.396 7.92328 44.9055 7.33344C46.0944 6.05545 46.0944 5.82607 45.1773 3.85992C44.8036 3.0407 44.5998 2.1887 44.7017 2.02485C45.0074 1.56609 49.695 1.63162 52.82 2.1887ZM43.8525 3.72884C44.7357 5.56391 44.7017 6.02268 43.7167 6.90744C43.2411 7.33344 42.4599 8.44759 41.9503 9.43066C40.4558 12.3143 39.8783 12.642 36.2777 12.8386C33.2886 13.0025 33.1527 13.0353 32.7111 13.8873C32.2696 14.8048 31.1826 15.1325 30.775 14.4771C30.4353 13.9528 28.2953 14.0839 27.3442 14.6737C25.476 15.8862 25.6119 17.4918 27.616 18.0162C28.4312 18.2128 28.7709 18.5077 28.9747 19.2941C29.1445 19.9823 29.5861 20.4411 30.2655 20.7032C31.6242 21.2603 34.8171 20.9654 35.6663 20.2444C36.1079 19.8512 36.7193 19.7201 37.6025 19.7857C38.6215 19.8512 38.9951 20.0806 39.4367 20.8671C39.9123 21.7191 40.218 21.8501 41.5767 21.9484C42.9354 22.0467 43.2071 22.1778 43.377 22.8332C43.4789 23.2592 44.396 24.3733 45.3811 25.2581C46.8757 26.6344 47.4191 26.9293 48.4382 26.9293C50.8159 26.9293 51.733 28.1418 50.3064 29.387C49.661 29.9769 49.4232 29.8786 40.8973 25.9135C32.3715 21.9812 32.0657 21.8501 29.7559 21.8174C28.4652 21.8174 26.529 21.5552 25.51 21.2603C23.9475 20.8015 23.5059 20.4738 22.7246 19.2614C22.1812 18.4749 21.7735 17.5246 21.7735 17.1314C21.7735 15.5585 26.7328 9.85666 30.2655 7.33344C33.6283 4.97407 39.8104 2.41808 42.256 2.35255C43.0373 2.35255 43.309 2.58192 43.8525 3.72884ZM60.6665 4.61361C67.7318 7.6939 73.3704 13.6579 76.2577 21.0964C77.4126 24.0129 78.2957 29.813 78.024 32.7295C77.7183 36.5307 76.7672 38.4313 73.6761 41.5443C71.0946 44.1331 69.6 45.0179 68.8867 44.3297C68.6489 44.1003 68.7508 43.7071 69.1584 43.0845C69.634 42.4291 69.8378 41.3477 69.9397 39.2177C70.0416 37.2188 70.2794 35.8753 70.721 35.0561C71.1625 34.2368 71.3663 33.1555 71.3663 31.7136C71.3663 29.9113 71.5362 29.3542 72.4193 27.9779C72.9968 27.0932 73.5403 25.7496 73.6422 25.0615C73.812 23.8818 73.7441 23.718 73.0308 23.5541C71.5701 23.1609 70.0416 23.3247 67.9016 24.0129C65.3541 24.8321 64.5728 24.6027 62.3989 22.3417C60.2589 20.1461 60.0891 18.9337 61.4818 16.3122C62.0592 15.2308 62.5347 14.1166 62.5347 13.8873C62.5347 13.0353 60.3948 8.05436 59.7154 7.33344C59.3078 6.94021 58.6285 6.61252 58.085 6.61252C57.5755 6.61252 56.8282 6.35037 56.3866 5.98991C55.6393 5.40007 55.6393 5.3673 56.1828 4.5153C56.9641 3.40115 57.9151 3.43392 60.6665 4.61361ZM22.9964 21.3586C23.6418 21.8829 24.491 22.3417 24.8646 22.3417C25.2382 22.3417 26.2233 22.8004 27.0385 23.3575C28.4312 24.3078 28.4652 24.4061 28.2953 25.7824C28.0236 28.2073 28.4312 29.2232 30.8089 32.0085C33.6622 35.351 34.2057 36.5634 34.4095 40.037C34.5114 41.872 34.8171 43.3466 35.2587 44.3625L35.972 45.8699L33.1867 48.4914C31.6581 49.966 29.9937 51.244 29.5182 51.3423C28.8728 51.5061 27.8538 51.2112 25.7138 50.2609C23.0643 49.0485 22.7246 48.7535 21.5697 47.0168C19.8374 44.428 18.2069 40.4302 17.4936 37.1205C17.052 34.9905 16.9841 33.3521 17.12 30.0752C17.2898 25.5203 17.9012 22.9643 19.5656 19.458L20.4828 17.5902L21.1621 18.9665C21.5358 19.7529 22.385 20.8015 22.9964 21.3586ZM37.059 30.5339C41.0672 33.4176 44.6338 36.0719 44.9395 36.4651C45.5169 37.0877 45.5169 37.2188 45.0074 38.038C44.7017 38.5296 43.9544 39.2505 43.343 39.6765C42.7316 40.0697 41.1011 41.3477 39.7424 42.4946C38.3498 43.6743 37.093 44.6246 36.9571 44.6246C36.4136 44.6246 35.7003 42.3308 35.7003 40.594C35.7003 36.7601 34.953 35.1871 30.5032 29.813C29.7899 28.9282 29.4502 28.109 29.3144 26.9293C29.2464 26.0446 29.2804 25.2909 29.4502 25.2909C29.6201 25.2909 33.0508 27.6503 37.059 30.5339ZM70.3473 32.0741C70.3133 32.5984 70.0756 33.5815 69.7699 34.3024C69.4981 35.0233 69.1245 36.8584 69.0226 38.3985C68.8527 40.1353 68.5131 41.741 68.0375 42.6585C67.4261 43.9365 67.3921 44.2314 67.7997 44.7885C68.1394 45.28 68.581 45.4439 69.8038 45.4111C71.3324 45.4111 71.5022 45.28 74.2876 42.6257C77.4466 39.6437 77.5824 39.742 75.7482 43.6088C74.3215 46.6563 71.9438 49.9332 69.4642 52.3254C67.3582 54.357 62.5347 57.7323 61.7535 57.7323C61.176 57.7323 60.2249 54.7503 59.8173 51.67C59.6135 50.2281 59.138 47.2134 58.7643 44.9523C58.3907 42.6913 58.1869 40.5285 58.2548 40.168C58.3907 39.742 60.0211 38.3657 62.263 36.8256C64.369 35.351 66.9505 33.5159 67.9696 32.6967C68.9886 31.8775 69.9397 31.2221 70.1095 31.1893C70.2454 31.1893 70.3473 31.5825 70.3473 32.0741ZM51.4613 45.4439C51.733 45.7388 52.3105 47.0168 52.6841 48.3275C53.0917 49.6383 53.6352 51.4078 53.9409 52.2598C54.5184 54.0293 54.4165 54.357 53.4314 53.8327C52.3444 53.2757 51.2235 53.4067 49.2194 54.2915C46.4341 55.5367 44.8716 55.3401 44.8716 53.7672C44.8716 52.8824 43.8865 51.5061 43.2411 51.5061C42.9014 51.5061 40.7275 52.9152 38.5875 54.5537C36.6514 55.9955 35.9041 57.1424 36.2098 58.0599C36.5155 58.9447 36.04 58.8792 33.6622 57.7323C31.4883 56.6836 31.2166 56.1593 32.1676 54.8486C32.813 53.931 37.1949 51.7683 38.1799 51.8666C39.4707 51.9321 39.7085 51.8666 39.9462 51.2112C40.0481 50.8835 41.1691 50.0643 42.4259 49.4417C43.6827 48.7863 45.9246 47.5083 47.4191 46.6235C50.3743 44.7885 50.68 44.7229 51.4613 45.4439ZM43.5129 53.7344C43.5129 56.1266 46.4001 56.8147 49.9327 55.2746L51.8689 54.4226L53.4654 55.1107C54.8581 55.7006 55.0958 55.9627 55.5374 57.339C55.945 58.6826 55.945 58.9119 55.5034 59.2724C54.1108 60.321 46.7058 60.6815 42.3919 59.895C36.3796 58.7809 35.972 57.8633 40.184 54.8158C41.7126 53.7017 43.0713 52.8169 43.2411 52.8169C43.377 52.8169 43.5129 53.2429 43.5129 53.7344Z" fill="#1D2939"/>
<path d="M12.2621 40.0694C10.7675 41.5767 4.82319 50.2933 3.19274 53.3081C-2.17416 63.3026 0.339452 68.3491 9.20502 65.4326C13.451 64.0563 22.894 58.6167 23.3356 57.3387C23.5054 56.7488 22.9619 55.7658 22.4524 55.7658C22.3165 55.7658 20.4823 56.8144 18.3423 58.1251C13.2472 61.2054 8.86534 63.2371 6.24983 63.6959C4.34764 64.0236 4.04193 64.0236 3.43051 63.4665C2.61529 62.7456 2.58132 61.697 3.29464 59.3376C4.41557 55.733 6.92918 51.4402 12.7037 43.379C13.7567 41.9044 14.6398 40.4626 14.6398 40.2004C14.6398 39.9383 14.3341 39.5778 13.9605 39.3812C13.3491 39.0535 13.1113 39.1846 12.2621 40.0694Z" fill="#1D2939"/>
<path d="M295.251 49.201V39.0872L287.738 19.7024H291.495L295.382 30.2797C295.906 31.6704 296.518 33.356 297.042 34.8731H297.086C297.61 33.356 298.222 31.6283 298.746 30.1955L302.633 19.7024H306.39L298.833 39.0872V49.201H295.251Z" fill="#1D2939"/>
<path d="M284.446 49.201L282.83 42.7956H273.962L272.346 49.201H268.589L276.452 19.7024H280.34L288.203 49.201H284.446ZM274.749 39.5929H282.043L279.554 29.6055C279.073 27.7092 278.636 25.2228 278.461 24.085H278.33C278.156 25.2228 277.719 27.7092 277.238 29.6055L274.749 39.5929Z" fill="#1D2939"/>
<path d="M249.928 49.201V19.7024H257.179C263.032 19.7024 266.44 22.9894 266.44 28.6363V40.2671C266.44 45.914 262.989 49.201 257.223 49.201H249.928ZM253.51 45.914H257.223C260.805 45.914 262.858 43.9755 262.858 40.1407V28.7205C262.858 24.9279 260.848 22.9894 257.223 22.9894H253.51V45.914Z" fill="#1D2939"/>
<path d="M239.946 19.7024H243.528V49.201H239.946V19.7024Z" fill="#1D2939"/>
<path d="M225.739 45.914H236.398V49.201H222.157V19.7024H225.739V45.914Z" fill="#1D2939"/>
<path d="M207.548 49.7488C201.869 49.7488 198.462 45.9983 198.462 39.93V28.9312C198.462 22.9051 201.869 19.1545 207.548 19.1545C213.227 19.1545 216.59 22.9051 216.59 28.9312V39.93C216.59 45.9983 213.227 49.7488 207.548 49.7488ZM207.548 46.3775C211.086 46.3775 212.921 44.0598 212.921 39.93V28.9312C212.921 24.8436 211.086 22.5258 207.548 22.5258C203.966 22.5258 202.132 24.8436 202.132 28.9312V39.93C202.132 44.0598 203.966 46.3775 207.548 46.3775Z" fill="#1D2939"/>
<path d="M189.281 19.7024H192.907V49.201H189.281V35.8423H179.584V49.201H175.958V19.7024H179.584V32.5975H189.281V19.7024Z" fill="#1D2939"/>
<path d="M158.945 49.201L157.329 42.7956H148.461L146.845 49.201H143.088L150.951 19.7024H154.839L162.701 49.201H158.945ZM149.247 39.5929H156.542L154.052 29.6055C153.572 27.7092 153.135 25.2228 152.96 24.085H152.829C152.655 25.2228 152.218 27.7092 151.737 29.6055L149.247 39.5929Z" fill="#1D2939"/>
<path d="M132.478 49.7488C127.236 49.7488 123.829 46.5039 123.742 41.3628H127.367C127.455 44.6919 129.42 46.4197 132.434 46.4197C135.754 46.4197 137.371 44.439 137.371 41.6578C137.371 35.3366 124.222 35.1681 124.222 26.487C124.222 22.3151 127.455 19.1545 132.391 19.1545C137.414 19.1545 140.472 22.3994 140.647 27.2456H137.021C136.89 24.0007 135.099 22.4837 132.434 22.4837C129.551 22.4837 127.848 24.085 127.848 26.5292C127.848 32.8082 141.04 32.6818 141.04 41.6999C141.04 45.914 138.026 49.7488 132.478 49.7488Z" fill="#1D2939"/>
<path d="M115.682 19.7024H119.264V49.201H115.682V19.7024Z" fill="#1D2939"/>
<path d="M100.438 49.201L92.7938 19.7024H96.5505L100.7 37.0223C101.356 39.8457 101.836 42.3742 102.36 44.6919H102.535C103.015 42.3742 103.54 39.8457 104.195 37.0223L108.301 19.7024H112.101L104.457 49.201H100.438Z" fill="#1D2939"/>
</g>
<path d="M102.918 64.4648V65.0039C102.918 65.6445 102.838 66.2188 102.677 66.7266C102.517 67.2344 102.287 67.666 101.986 68.0215C101.685 68.377 101.324 68.6484 100.902 68.8359C100.484 69.0234 100.015 69.1172 99.4957 69.1172C98.9918 69.1172 98.5289 69.0234 98.107 68.8359C97.6891 68.6484 97.3258 68.377 97.0172 68.0215C96.7125 67.666 96.4762 67.2344 96.3082 66.7266C96.1402 66.2188 96.0563 65.6445 96.0563 65.0039V64.4648C96.0563 63.8242 96.1383 63.252 96.3023 62.748C96.4703 62.2402 96.7066 61.8086 97.0113 61.4531C97.316 61.0938 97.6773 60.8203 98.0953 60.6328C98.5172 60.4453 98.9801 60.3516 99.484 60.3516C100.004 60.3516 100.472 60.4453 100.89 60.6328C101.312 60.8203 101.673 61.0938 101.974 61.4531C102.279 61.8086 102.511 62.2402 102.671 62.748C102.836 63.252 102.918 63.8242 102.918 64.4648ZM101.798 65.0039V64.4531C101.798 63.9453 101.746 63.4961 101.64 63.1055C101.539 62.7148 101.388 62.3867 101.189 62.1211C100.99 61.8555 100.746 61.6543 100.457 61.5176C100.171 61.3809 99.8473 61.3125 99.484 61.3125C99.1324 61.3125 98.8141 61.3809 98.5289 61.5176C98.2477 61.6543 98.0055 61.8555 97.8023 62.1211C97.6031 62.3867 97.4488 62.7148 97.3395 63.1055C97.2301 63.4961 97.1754 63.9453 97.1754 64.4531V65.0039C97.1754 65.5156 97.2301 65.9688 97.3395 66.3633C97.4488 66.7539 97.6051 67.084 97.8082 67.3535C98.0152 67.6191 98.2594 67.8203 98.5406 67.957C98.8258 68.0938 99.1441 68.1621 99.4957 68.1621C99.8629 68.1621 100.189 68.0938 100.474 67.957C100.759 67.8203 101 67.6191 101.195 67.3535C101.394 67.084 101.545 66.7539 101.646 66.3633C101.748 65.9688 101.798 65.5156 101.798 65.0039ZM107.271 62.6602V69H106.181V62.6602H107.271ZM109.398 62.6602V63.5391H104.095V62.6602H109.398ZM111.882 62.6602V69H110.798V62.6602H111.882ZM116.042 62.6602L113.036 66.293H111.519L111.355 65.3438H112.597L114.724 62.6602H116.042ZM114.876 69L112.544 66.1289L113.241 65.3438L116.253 69H114.876ZM118.52 63.8789V71.4375H117.431V62.6602H118.427L118.52 63.8789ZM122.792 65.7773V65.9004C122.792 66.3613 122.737 66.7891 122.628 67.1836C122.518 67.5742 122.358 67.9141 122.147 68.2031C121.94 68.4922 121.684 68.7168 121.38 68.877C121.075 69.0371 120.725 69.1172 120.331 69.1172C119.929 69.1172 119.573 69.0508 119.265 68.918C118.956 68.7852 118.694 68.5918 118.479 68.3379C118.265 68.084 118.093 67.7793 117.964 67.4238C117.839 67.0684 117.753 66.668 117.706 66.2227V65.5664C117.753 65.0977 117.841 64.6777 117.97 64.3066C118.099 63.9355 118.268 63.6191 118.479 63.3574C118.694 63.0918 118.954 62.8906 119.259 62.7539C119.563 62.6133 119.915 62.543 120.313 62.543C120.712 62.543 121.065 62.6211 121.374 62.7773C121.683 62.9297 121.942 63.1484 122.153 63.4336C122.364 63.7188 122.522 64.0605 122.628 64.459C122.737 64.8535 122.792 65.293 122.792 65.7773ZM121.702 65.9004V65.7773C121.702 65.4609 121.669 65.1641 121.602 64.8867C121.536 64.6055 121.433 64.3594 121.292 64.1484C121.155 63.9336 120.979 63.7656 120.765 63.6445C120.55 63.5195 120.294 63.457 119.997 63.457C119.724 63.457 119.485 63.5039 119.282 63.5977C119.083 63.6914 118.913 63.8184 118.772 63.9785C118.632 64.1348 118.516 64.3145 118.427 64.5176C118.341 64.7168 118.276 64.9238 118.233 65.1387V66.6562C118.311 66.9297 118.421 67.1875 118.561 67.4297C118.702 67.668 118.89 67.8613 119.124 68.0098C119.358 68.1543 119.653 68.2266 120.009 68.2266C120.302 68.2266 120.554 68.166 120.765 68.0449C120.979 67.9199 121.155 67.75 121.292 67.5352C121.433 67.3203 121.536 67.0742 121.602 66.7969C121.669 66.5156 121.702 66.2168 121.702 65.9004ZM125.305 64.8398H127.21C127.721 64.8398 128.153 64.9297 128.505 65.1094C128.856 65.2852 129.122 65.5293 129.301 65.8418C129.485 66.1504 129.577 66.502 129.577 66.8965C129.577 67.1895 129.526 67.4648 129.424 67.7227C129.323 67.9766 129.171 68.1992 128.967 68.3906C128.768 68.582 128.52 68.7324 128.223 68.8418C127.93 68.9473 127.592 69 127.21 69H124.514V62.6602H125.598V68.1094H127.21C127.522 68.1094 127.772 68.0527 127.96 67.9395C128.147 67.8262 128.282 67.6797 128.364 67.5C128.446 67.3203 128.487 67.1328 128.487 66.9375C128.487 66.7461 128.446 66.5586 128.364 66.375C128.282 66.1914 128.147 66.0391 127.96 65.918C127.772 65.793 127.522 65.7305 127.21 65.7305H125.305V64.8398ZM131.833 62.6602V69H130.749V62.6602H131.833ZM136.948 66.2109H134.868L134.856 65.3438H136.555C136.891 65.3438 137.17 65.3105 137.393 65.2441C137.62 65.1777 137.789 65.0781 137.903 64.9453C138.016 64.8125 138.073 64.6484 138.073 64.4531C138.073 64.3008 138.039 64.168 137.973 64.0547C137.911 63.9375 137.815 63.8418 137.686 63.7676C137.557 63.6895 137.397 63.6328 137.205 63.5977C137.018 63.5586 136.797 63.5391 136.543 63.5391H135.155V69H134.071V62.6602H136.543C136.946 62.6602 137.307 62.6953 137.627 62.7656C137.952 62.8359 138.227 62.9434 138.454 63.0879C138.684 63.2285 138.86 63.4082 138.981 63.627C139.102 63.8457 139.163 64.1035 139.163 64.4004C139.163 64.5918 139.123 64.7734 139.045 64.9453C138.967 65.1172 138.852 65.2695 138.7 65.4023C138.547 65.5352 138.36 65.6445 138.137 65.7305C137.914 65.8125 137.659 65.8652 137.37 65.8887L136.948 66.2109ZM136.948 69H134.475L135.014 68.1211H136.948C137.248 68.1211 137.498 68.084 137.698 68.0098C137.897 67.9316 138.045 67.8223 138.143 67.6816C138.245 67.5371 138.295 67.3652 138.295 67.166C138.295 66.9668 138.245 66.7969 138.143 66.6562C138.045 66.5117 137.897 66.4023 137.698 66.3281C137.498 66.25 137.248 66.2109 136.948 66.2109H135.301L135.313 65.3438H137.37L137.762 65.6719C138.11 65.6992 138.405 65.7852 138.647 65.9297C138.889 66.0742 139.073 66.2578 139.198 66.4805C139.323 66.6992 139.385 66.9375 139.385 67.1953C139.385 67.4922 139.329 67.7539 139.215 67.9805C139.106 68.207 138.946 68.3965 138.735 68.5488C138.524 68.6973 138.268 68.8105 137.967 68.8887C137.666 68.9629 137.327 69 136.948 69ZM144.817 67.916V64.6523C144.817 64.4023 144.766 64.1855 144.664 64.002C144.567 63.8145 144.418 63.6699 144.219 63.5684C144.02 63.4668 143.774 63.416 143.481 63.416C143.207 63.416 142.967 63.4629 142.76 63.5566C142.557 63.6504 142.397 63.7734 142.279 63.9258C142.166 64.0781 142.11 64.2422 142.11 64.418H141.026C141.026 64.1914 141.084 63.9668 141.201 63.7441C141.319 63.5215 141.486 63.3203 141.705 63.1406C141.928 62.957 142.194 62.8125 142.502 62.707C142.815 62.5977 143.162 62.543 143.545 62.543C144.006 62.543 144.412 62.6211 144.764 62.7773C145.119 62.9336 145.397 63.1699 145.596 63.4863C145.799 63.7988 145.901 64.1914 145.901 64.6641V67.6172C145.901 67.8281 145.918 68.0527 145.953 68.291C145.992 68.5293 146.049 68.7344 146.123 68.9062V69H144.992C144.938 68.875 144.895 68.709 144.863 68.502C144.832 68.291 144.817 68.0957 144.817 67.916ZM145.004 65.1562L145.016 65.918H143.92C143.611 65.918 143.336 65.9434 143.094 65.9941C142.852 66.041 142.649 66.1133 142.485 66.2109C142.32 66.3086 142.195 66.4316 142.11 66.5801C142.024 66.7246 141.981 66.8945 141.981 67.0898C141.981 67.2891 142.026 67.4707 142.115 67.6348C142.205 67.7988 142.34 67.9297 142.52 68.0273C142.703 68.1211 142.928 68.168 143.194 68.168C143.526 68.168 143.819 68.0977 144.072 67.957C144.326 67.8164 144.528 67.6445 144.676 67.4414C144.828 67.2383 144.91 67.041 144.922 66.8496L145.385 67.3711C145.358 67.5352 145.283 67.7168 145.162 67.916C145.041 68.1152 144.879 68.3066 144.676 68.4902C144.477 68.6699 144.238 68.8203 143.961 68.9414C143.688 69.0586 143.379 69.1172 143.035 69.1172C142.606 69.1172 142.229 69.0332 141.904 68.8652C141.584 68.6973 141.334 68.4727 141.154 68.1914C140.979 67.9062 140.891 67.5879 140.891 67.2363C140.891 66.8965 140.957 66.5977 141.09 66.3398C141.223 66.0781 141.414 65.8613 141.664 65.6895C141.914 65.5137 142.215 65.3809 142.567 65.291C142.918 65.2012 143.311 65.1562 143.744 65.1562H145.004ZM149.018 67.2832L151.941 62.6602H153.031V69H151.941V64.377L149.018 69H147.939V62.6602H149.018V67.2832ZM151.35 60.3633H152.228C152.228 60.668 152.158 60.9395 152.018 61.1777C151.877 61.4121 151.676 61.5957 151.414 61.7285C151.152 61.8613 150.842 61.9277 150.482 61.9277C149.939 61.9277 149.51 61.7832 149.193 61.4941C148.881 61.2012 148.725 60.8242 148.725 60.3633H149.603C149.603 60.5938 149.67 60.7969 149.803 60.9727C149.935 61.1484 150.162 61.2363 150.482 61.2363C150.795 61.2363 151.018 61.1484 151.15 60.9727C151.283 60.7969 151.35 60.5938 151.35 60.3633ZM162.529 65.4082V66.2871H159.177V65.4082H162.529ZM159.406 62.6602V69H158.322V62.6602H159.406ZM163.408 62.6602V69H162.318V62.6602H163.408ZM165.107 65.9004V65.7656C165.107 65.3086 165.173 64.8848 165.306 64.4941C165.439 64.0996 165.63 63.7578 165.88 63.4688C166.13 63.1758 166.433 62.9492 166.788 62.7891C167.144 62.625 167.542 62.543 167.984 62.543C168.429 62.543 168.829 62.625 169.185 62.7891C169.544 62.9492 169.849 63.1758 170.099 63.4688C170.353 63.7578 170.546 64.0996 170.679 64.4941C170.812 64.8848 170.878 65.3086 170.878 65.7656V65.9004C170.878 66.3574 170.812 66.7812 170.679 67.1719C170.546 67.5625 170.353 67.9043 170.099 68.1973C169.849 68.4863 169.546 68.7129 169.191 68.877C168.839 69.0371 168.441 69.1172 167.995 69.1172C167.55 69.1172 167.15 69.0371 166.794 68.877C166.439 68.7129 166.134 68.4863 165.88 68.1973C165.63 67.9043 165.439 67.5625 165.306 67.1719C165.173 66.7812 165.107 66.3574 165.107 65.9004ZM166.191 65.7656V65.9004C166.191 66.2168 166.228 66.5156 166.302 66.7969C166.376 67.0742 166.488 67.3203 166.636 67.5352C166.788 67.75 166.978 67.9199 167.204 68.0449C167.431 68.166 167.695 68.2266 167.995 68.2266C168.292 68.2266 168.552 68.166 168.775 68.0449C169.001 67.9199 169.189 67.75 169.337 67.5352C169.486 67.3203 169.597 67.0742 169.671 66.7969C169.749 66.5156 169.788 66.2168 169.788 65.9004V65.7656C169.788 65.4531 169.749 65.1582 169.671 64.8809C169.597 64.5996 169.484 64.3516 169.331 64.1367C169.183 63.918 168.995 63.7461 168.769 63.6211C168.546 63.4961 168.284 63.4336 167.984 63.4336C167.687 63.4336 167.425 63.4961 167.198 63.6211C166.976 63.7461 166.788 63.918 166.636 64.1367C166.488 64.3516 166.376 64.5996 166.302 64.8809C166.228 65.1582 166.191 65.4531 166.191 65.7656ZM175.454 66.2109H173.374L173.362 65.3438H175.061C175.397 65.3438 175.677 65.3105 175.899 65.2441C176.126 65.1777 176.296 65.0781 176.409 64.9453C176.522 64.8125 176.579 64.6484 176.579 64.4531C176.579 64.3008 176.546 64.168 176.479 64.0547C176.417 63.9375 176.321 63.8418 176.192 63.7676C176.063 63.6895 175.903 63.6328 175.712 63.5977C175.524 63.5586 175.304 63.5391 175.05 63.5391H173.661V69H172.577V62.6602H175.05C175.452 62.6602 175.813 62.6953 176.134 62.7656C176.458 62.8359 176.733 62.9434 176.96 63.0879C177.19 63.2285 177.366 63.4082 177.487 63.627C177.608 63.8457 177.669 64.1035 177.669 64.4004C177.669 64.5918 177.63 64.7734 177.552 64.9453C177.474 65.1172 177.358 65.2695 177.206 65.4023C177.054 65.5352 176.866 65.6445 176.644 65.7305C176.421 65.8125 176.165 65.8652 175.876 65.8887L175.454 66.2109ZM175.454 69H172.981L173.52 68.1211H175.454C175.755 68.1211 176.005 68.084 176.204 68.0098C176.403 67.9316 176.552 67.8223 176.649 67.6816C176.751 67.5371 176.802 67.3652 176.802 67.166C176.802 66.9668 176.751 66.7969 176.649 66.6562C176.552 66.5117 176.403 66.4023 176.204 66.3281C176.005 66.25 175.755 66.2109 175.454 66.2109H173.808L173.819 65.3438H175.876L176.269 65.6719C176.616 65.6992 176.911 65.7852 177.153 65.9297C177.395 66.0742 177.579 66.2578 177.704 66.4805C177.829 66.6992 177.892 66.9375 177.892 67.1953C177.892 67.4922 177.835 67.7539 177.722 67.9805C177.612 68.207 177.452 68.3965 177.241 68.5488C177.03 68.6973 176.774 68.8105 176.474 68.8887C176.173 68.9629 175.833 69 175.454 69ZM180.475 64.8398H182.38C182.891 64.8398 183.323 64.9297 183.675 65.1094C184.026 65.2852 184.292 65.5293 184.471 65.8418C184.655 66.1504 184.747 66.502 184.747 66.8965C184.747 67.1895 184.696 67.4648 184.594 67.7227C184.493 67.9766 184.341 68.1992 184.137 68.3906C183.938 68.582 183.69 68.7324 183.393 68.8418C183.1 68.9473 182.762 69 182.38 69H179.684V62.6602H180.768V68.1094H182.38C182.692 68.1094 182.942 68.0527 183.13 67.9395C183.317 67.8262 183.452 67.6797 183.534 67.5C183.616 67.3203 183.657 67.1328 183.657 66.9375C183.657 66.7461 183.616 66.5586 183.534 66.375C183.452 66.1914 183.317 66.0391 183.13 65.918C182.942 65.793 182.692 65.7305 182.38 65.7305H180.475V64.8398ZM187.003 62.6602V69H185.919V62.6602H187.003ZM191.772 69.1172C191.331 69.1172 190.93 69.043 190.571 68.8945C190.215 68.7422 189.909 68.5293 189.651 68.2559C189.397 67.9824 189.202 67.6582 189.065 67.2832C188.928 66.9082 188.86 66.498 188.86 66.0527V65.8066C188.86 65.291 188.936 64.832 189.088 64.4297C189.241 64.0234 189.448 63.6797 189.709 63.3984C189.971 63.1172 190.268 62.9043 190.6 62.7598C190.932 62.6152 191.276 62.543 191.631 62.543C192.084 62.543 192.475 62.6211 192.803 62.7773C193.135 62.9336 193.407 63.1523 193.618 63.4336C193.829 63.7109 193.985 64.0391 194.086 64.418C194.188 64.793 194.239 65.2031 194.239 65.6484V66.1348H189.504V65.25H193.155V65.168C193.139 64.8867 193.081 64.6133 192.979 64.3477C192.881 64.082 192.725 63.8633 192.51 63.6914C192.295 63.5195 192.002 63.4336 191.631 63.4336C191.385 63.4336 191.159 63.4863 190.952 63.5918C190.745 63.6934 190.567 63.8457 190.418 64.0488C190.27 64.252 190.155 64.5 190.073 64.793C189.991 65.0859 189.95 65.4238 189.95 65.8066V66.0527C189.95 66.3535 189.991 66.6367 190.073 66.9023C190.159 67.1641 190.282 67.3945 190.442 67.5938C190.606 67.793 190.803 67.9492 191.034 68.0625C191.268 68.1758 191.534 68.2324 191.831 68.2324C192.213 68.2324 192.538 68.1543 192.803 67.998C193.069 67.8418 193.301 67.6328 193.5 67.3711L194.157 67.8926C194.02 68.0996 193.846 68.2969 193.635 68.4844C193.424 68.6719 193.165 68.8242 192.856 68.9414C192.551 69.0586 192.19 69.1172 191.772 69.1172ZM203.057 62.6602V63.5566H200.127V69H199.043V62.6602H203.057ZM203.836 65.9004V65.7656C203.836 65.3086 203.902 64.8848 204.035 64.4941C204.168 64.0996 204.359 63.7578 204.609 63.4688C204.859 63.1758 205.162 62.9492 205.517 62.7891C205.873 62.625 206.271 62.543 206.713 62.543C207.158 62.543 207.558 62.625 207.914 62.7891C208.273 62.9492 208.578 63.1758 208.828 63.4688C209.082 63.7578 209.275 64.0996 209.408 64.4941C209.541 64.8848 209.607 65.3086 209.607 65.7656V65.9004C209.607 66.3574 209.541 66.7812 209.408 67.1719C209.275 67.5625 209.082 67.9043 208.828 68.1973C208.578 68.4863 208.275 68.7129 207.92 68.877C207.568 69.0371 207.17 69.1172 206.724 69.1172C206.279 69.1172 205.879 69.0371 205.523 68.877C205.168 68.7129 204.863 68.4863 204.609 68.1973C204.359 67.9043 204.168 67.5625 204.035 67.1719C203.902 66.7812 203.836 66.3574 203.836 65.9004ZM204.92 65.7656V65.9004C204.92 66.2168 204.957 66.5156 205.031 66.7969C205.105 67.0742 205.217 67.3203 205.365 67.5352C205.517 67.75 205.707 67.9199 205.933 68.0449C206.16 68.166 206.424 68.2266 206.724 68.2266C207.021 68.2266 207.281 68.166 207.504 68.0449C207.73 67.9199 207.918 67.75 208.066 67.5352C208.215 67.3203 208.326 67.0742 208.4 66.7969C208.478 66.5156 208.517 66.2168 208.517 65.9004V65.7656C208.517 65.4531 208.478 65.1582 208.4 64.8809C208.326 64.5996 208.213 64.3516 208.06 64.1367C207.912 63.918 207.724 63.7461 207.498 63.6211C207.275 63.4961 207.013 63.4336 206.713 63.4336C206.416 63.4336 206.154 63.4961 205.927 63.6211C205.705 63.7461 205.517 63.918 205.365 64.1367C205.217 64.3516 205.105 64.5996 205.031 64.8809C204.957 65.1582 204.92 65.4531 204.92 65.7656ZM212.291 63.8789V71.4375H211.201V62.6602H212.197L212.291 63.8789ZM216.562 65.7773V65.9004C216.562 66.3613 216.507 66.7891 216.398 67.1836C216.289 67.5742 216.128 67.9141 215.918 68.2031C215.71 68.4922 215.455 68.7168 215.15 68.877C214.845 69.0371 214.496 69.1172 214.101 69.1172C213.699 69.1172 213.343 69.0508 213.035 68.918C212.726 68.7852 212.464 68.5918 212.25 68.3379C212.035 68.084 211.863 67.7793 211.734 67.4238C211.609 67.0684 211.523 66.668 211.476 66.2227V65.5664C211.523 65.0977 211.611 64.6777 211.74 64.3066C211.869 63.9355 212.039 63.6191 212.25 63.3574C212.464 63.0918 212.724 62.8906 213.029 62.7539C213.334 62.6133 213.685 62.543 214.084 62.543C214.482 62.543 214.835 62.6211 215.144 62.7773C215.453 62.9297 215.712 63.1484 215.923 63.4336C216.134 63.7188 216.293 64.0605 216.398 64.459C216.507 64.8535 216.562 65.293 216.562 65.7773ZM215.472 65.9004V65.7773C215.472 65.4609 215.439 65.1641 215.373 64.8867C215.306 64.6055 215.203 64.3594 215.062 64.1484C214.925 63.9336 214.75 63.7656 214.535 63.6445C214.32 63.5195 214.064 63.457 213.767 63.457C213.494 63.457 213.255 63.5039 213.052 63.5977C212.853 63.6914 212.683 63.8184 212.543 63.9785C212.402 64.1348 212.287 64.3145 212.197 64.5176C212.111 64.7168 212.046 64.9238 212.003 65.1387V66.6562C212.082 66.9297 212.191 67.1875 212.332 67.4297C212.472 67.668 212.66 67.8613 212.894 68.0098C213.128 68.1543 213.423 68.2266 213.779 68.2266C214.072 68.2266 214.324 68.166 214.535 68.0449C214.75 67.9199 214.925 67.75 215.062 67.5352C215.203 67.3203 215.306 67.0742 215.373 66.7969C215.439 66.5156 215.472 66.2168 215.472 65.9004ZM219.357 67.2832L222.281 62.6602H223.37V69H222.281V64.377L219.357 69H218.279V62.6602H219.357V67.2832ZM227.718 65.9707H226.552V65.3027H227.63C227.931 65.3027 228.169 65.2656 228.345 65.1914C228.521 65.1133 228.646 65.0059 228.72 64.8691C228.794 64.7324 228.831 64.5723 228.831 64.3887C228.831 64.2246 228.788 64.0703 228.702 63.9258C228.62 63.7773 228.487 63.6582 228.304 63.5684C228.12 63.4746 227.874 63.4277 227.565 63.4277C227.315 63.4277 227.089 63.4727 226.886 63.5625C226.683 63.6484 226.521 63.7676 226.399 63.9199C226.282 64.0684 226.224 64.2363 226.224 64.4238H225.14C225.14 64.0371 225.249 63.7051 225.468 63.4277C225.69 63.1465 225.985 62.9297 226.353 62.7773C226.724 62.625 227.128 62.5488 227.565 62.5488C227.933 62.5488 228.261 62.5898 228.55 62.6719C228.843 62.75 229.091 62.8672 229.294 63.0234C229.497 63.1758 229.651 63.3672 229.757 63.5977C229.866 63.8242 229.921 64.0879 229.921 64.3887C229.921 64.6035 229.87 64.8066 229.769 64.998C229.667 65.1895 229.521 65.3594 229.329 65.5078C229.138 65.6523 228.905 65.7656 228.632 65.8477C228.362 65.9297 228.058 65.9707 227.718 65.9707ZM226.552 65.5605H227.718C228.097 65.5605 228.431 65.5977 228.72 65.6719C229.009 65.7422 229.251 65.8477 229.446 65.9883C229.642 66.1289 229.788 66.3027 229.886 66.5098C229.987 66.7129 230.038 66.9473 230.038 67.2129C230.038 67.5098 229.978 67.7773 229.856 68.0156C229.739 68.25 229.571 68.4492 229.353 68.6133C229.134 68.7773 228.872 68.9023 228.567 68.9883C228.267 69.0742 227.933 69.1172 227.565 69.1172C227.155 69.1172 226.757 69.0469 226.37 68.9062C225.983 68.7656 225.665 68.5488 225.415 68.2559C225.165 67.959 225.04 67.582 225.04 67.125H226.124C226.124 67.3164 226.185 67.498 226.306 67.6699C226.427 67.8418 226.595 67.9805 226.81 68.0859C227.028 68.1914 227.28 68.2441 227.565 68.2441C227.87 68.2441 228.124 68.1973 228.327 68.1035C228.53 68.0098 228.683 67.8848 228.784 67.7285C228.89 67.5723 228.942 67.4023 228.942 67.2188C228.942 66.9805 228.896 66.7891 228.802 66.6445C228.708 66.5 228.564 66.3945 228.368 66.3281C228.177 66.2578 227.931 66.2227 227.63 66.2227H226.552V65.5605ZM231.397 65.9004V65.7656C231.397 65.3086 231.464 64.8848 231.596 64.4941C231.729 64.0996 231.921 63.7578 232.171 63.4688C232.421 63.1758 232.723 62.9492 233.079 62.7891C233.434 62.625 233.833 62.543 234.274 62.543C234.72 62.543 235.12 62.625 235.475 62.7891C235.835 62.9492 236.139 63.1758 236.389 63.4688C236.643 63.7578 236.837 64.0996 236.97 64.4941C237.102 64.8848 237.169 65.3086 237.169 65.7656V65.9004C237.169 66.3574 237.102 66.7812 236.97 67.1719C236.837 67.5625 236.643 67.9043 236.389 68.1973C236.139 68.4863 235.837 68.7129 235.481 68.877C235.13 69.0371 234.731 69.1172 234.286 69.1172C233.841 69.1172 233.44 69.0371 233.085 68.877C232.729 68.7129 232.425 68.4863 232.171 68.1973C231.921 67.9043 231.729 67.5625 231.596 67.1719C231.464 66.7812 231.397 66.3574 231.397 65.9004ZM232.481 65.7656V65.9004C232.481 66.2168 232.518 66.5156 232.593 66.7969C232.667 67.0742 232.778 67.3203 232.927 67.5352C233.079 67.75 233.268 67.9199 233.495 68.0449C233.721 68.166 233.985 68.2266 234.286 68.2266C234.583 68.2266 234.843 68.166 235.065 68.0449C235.292 67.9199 235.479 67.75 235.628 67.5352C235.776 67.3203 235.888 67.0742 235.962 66.7969C236.04 66.5156 236.079 66.2168 236.079 65.9004V65.7656C236.079 65.4531 236.04 65.1582 235.962 64.8809C235.888 64.5996 235.774 64.3516 235.622 64.1367C235.473 63.918 235.286 63.7461 235.059 63.6211C234.837 63.4961 234.575 63.4336 234.274 63.4336C233.977 63.4336 233.716 63.4961 233.489 63.6211C233.266 63.7461 233.079 63.918 232.927 64.1367C232.778 64.3516 232.667 64.5996 232.593 64.8809C232.518 65.1582 232.481 65.4531 232.481 65.7656ZM243.069 65.4082V66.2871H239.717V65.4082H243.069ZM239.946 62.6602V69H238.862V62.6602H239.946ZM243.948 62.6602V69H242.858V62.6602H243.948ZM248.518 62.6602V69H247.428V62.6602H248.518ZM250.645 62.6602V63.5391H245.342V62.6602H250.645ZM252.842 64.8398H254.746C255.258 64.8398 255.69 64.9297 256.041 65.1094C256.393 65.2852 256.658 65.5293 256.838 65.8418C257.022 66.1504 257.113 66.502 257.113 66.8965C257.113 67.1895 257.063 67.4648 256.961 67.7227C256.859 67.9766 256.707 68.1992 256.504 68.3906C256.305 68.582 256.057 68.7324 255.76 68.8418C255.467 68.9473 255.129 69 254.746 69H252.051V62.6602H253.135V68.1094H254.746C255.059 68.1094 255.309 68.0527 255.496 67.9395C255.684 67.8262 255.818 67.6797 255.9 67.5C255.983 67.3203 256.024 67.1328 256.024 66.9375C256.024 66.7461 255.983 66.5586 255.9 66.375C255.818 66.1914 255.684 66.0391 255.496 65.918C255.309 65.793 255.059 65.7305 254.746 65.7305H252.842V64.8398ZM259.369 62.6602V69H258.285V62.6602H259.369ZM267.261 68.2266C267.519 68.2266 267.757 68.1738 267.976 68.0684C268.195 67.9629 268.375 67.8184 268.515 67.6348C268.656 67.4473 268.736 67.2344 268.755 66.9961H269.787C269.767 67.3711 269.64 67.7207 269.406 68.0449C269.175 68.3652 268.873 68.625 268.498 68.8242C268.123 69.0195 267.711 69.1172 267.261 69.1172C266.785 69.1172 266.369 69.0332 266.013 68.8652C265.662 68.6973 265.369 68.4668 265.134 68.1738C264.904 67.8809 264.73 67.5449 264.613 67.166C264.5 66.7832 264.443 66.3789 264.443 65.9531V65.707C264.443 65.2812 264.5 64.8789 264.613 64.5C264.73 64.1172 264.904 63.7793 265.134 63.4863C265.369 63.1934 265.662 62.9629 266.013 62.7949C266.369 62.627 266.785 62.543 267.261 62.543C267.757 62.543 268.191 62.6445 268.562 62.8477C268.933 63.0469 269.224 63.3203 269.435 63.668C269.65 64.0117 269.767 64.4023 269.787 64.8398H268.755C268.736 64.5781 268.662 64.3418 268.533 64.1309C268.408 63.9199 268.236 63.752 268.017 63.627C267.802 63.498 267.55 63.4336 267.261 63.4336C266.929 63.4336 266.65 63.5 266.423 63.6328C266.201 63.7617 266.023 63.9375 265.89 64.1602C265.761 64.3789 265.668 64.623 265.609 64.8926C265.554 65.1582 265.527 65.4297 265.527 65.707V65.9531C265.527 66.2305 265.554 66.5039 265.609 66.7734C265.664 67.043 265.755 67.2871 265.884 67.5059C266.017 67.7246 266.195 67.9004 266.418 68.0332C266.644 68.1621 266.925 68.2266 267.261 68.2266ZM278.763 65.4082V66.2871H275.411V65.4082H278.763ZM275.64 62.6602V69H274.556V62.6602H275.64ZM279.642 62.6602V69H278.552V62.6602H279.642ZM285.366 67.916V64.6523C285.366 64.4023 285.315 64.1855 285.214 64.002C285.116 63.8145 284.968 63.6699 284.768 63.5684C284.569 63.4668 284.323 63.416 284.03 63.416C283.757 63.416 283.516 63.4629 283.309 63.5566C283.106 63.6504 282.946 63.7734 282.829 63.9258C282.716 64.0781 282.659 64.2422 282.659 64.418H281.575C281.575 64.1914 281.634 63.9668 281.751 63.7441C281.868 63.5215 282.036 63.3203 282.255 63.1406C282.477 62.957 282.743 62.8125 283.052 62.707C283.364 62.5977 283.712 62.543 284.095 62.543C284.556 62.543 284.962 62.6211 285.313 62.7773C285.669 62.9336 285.946 63.1699 286.145 63.4863C286.349 63.7988 286.45 64.1914 286.45 64.6641V67.6172C286.45 67.8281 286.468 68.0527 286.503 68.291C286.542 68.5293 286.599 68.7344 286.673 68.9062V69H285.542C285.487 68.875 285.444 68.709 285.413 68.502C285.382 68.291 285.366 68.0957 285.366 67.916ZM285.554 65.1562L285.565 65.918H284.47C284.161 65.918 283.886 65.9434 283.643 65.9941C283.401 66.041 283.198 66.1133 283.034 66.2109C282.87 66.3086 282.745 66.4316 282.659 66.5801C282.573 66.7246 282.53 66.8945 282.53 67.0898C282.53 67.2891 282.575 67.4707 282.665 67.6348C282.755 67.7988 282.89 67.9297 283.069 68.0273C283.253 68.1211 283.477 68.168 283.743 68.168C284.075 68.168 284.368 68.0977 284.622 67.957C284.876 67.8164 285.077 67.6445 285.225 67.4414C285.378 67.2383 285.46 67.041 285.472 66.8496L285.934 67.3711C285.907 67.5352 285.833 67.7168 285.712 67.916C285.591 68.1152 285.429 68.3066 285.225 68.4902C285.026 68.6699 284.788 68.8203 284.511 68.9414C284.237 69.0586 283.929 69.1172 283.585 69.1172C283.155 69.1172 282.778 69.0332 282.454 68.8652C282.134 68.6973 281.884 68.4727 281.704 68.1914C281.528 67.9062 281.44 67.5879 281.44 67.2363C281.44 66.8965 281.507 66.5977 281.64 66.3398C281.772 66.0781 281.964 65.8613 282.214 65.6895C282.464 65.5137 282.765 65.3809 283.116 65.291C283.468 65.2012 283.86 65.1562 284.294 65.1562H285.554ZM292.04 67.5586L294.196 62.6602H295.239L292.415 69H291.665L288.852 62.6602H289.895L292.04 67.5586ZM289.579 62.6602V69H288.495V62.6602H289.579ZM294.465 69V62.6602H295.555V69H294.465ZM298.713 67.2832L301.637 62.6602H302.727V69H301.637V64.377L298.713 69H297.635V62.6602H298.713V67.2832Z" fill="#323232"/>
<defs>
<clipPath id="clip0_2002_1735">
<rect width="306" height="68" fill="white"/>
</clipPath>
</defs>
</svg>
