<svg width="48" height="35" viewBox="0 0 48 35" fill="none" xmlns="http://www.w3.org/2000/svg">
<rect width="48" height="34.2857" rx="2" fill="white"/>
<mask id="mask0_3032_1735" style="mask-type:luminance" maskUnits="userSpaceOnUse" x="0" y="0" width="48" height="35">
<rect width="48" height="34.2857" rx="2" fill="white"/>
</mask>
<g mask="url(#mask0_3032_1735)">
<path fill-rule="evenodd" clip-rule="evenodd" d="M48 0H0V2.28571H48V0ZM48 4.57227H0V6.85798H48V4.57227ZM0 9.14286H48V11.4286H0V9.14286ZM48 13.7148H0V16.0006H48V13.7148ZM0 18.2852H48V20.5709H0V18.2852ZM48 22.8571H0V25.1429H48V22.8571ZM0 27.4277H48V29.7134H0V27.4277ZM48 32H0V34.2857H48V32Z" fill="#D02F44"/>
<rect width="20.5714" height="16" fill="#46467F"/>
<g filter="url(#filter0_d_3032_1735)">
<path fill-rule="evenodd" clip-rule="evenodd" d="M4.57185 3.42801C4.57185 4.0592 4.06017 4.57087 3.42899 4.57087C2.79781 4.57087 2.28613 4.0592 2.28613 3.42801C2.28613 2.79683 2.79781 2.28516 3.42899 2.28516C4.06017 2.28516 4.57185 2.79683 4.57185 3.42801ZM9.14328 3.42801C9.14328 4.0592 8.6316 4.57087 8.00042 4.57087C7.36924 4.57087 6.85756 4.0592 6.85756 3.42801C6.85756 2.79683 7.36924 2.28516 8.00042 2.28516C8.6316 2.28516 9.14328 2.79683 9.14328 3.42801ZM12.5718 4.57087C13.203 4.57087 13.7147 4.0592 13.7147 3.42801C13.7147 2.79683 13.203 2.28516 12.5718 2.28516C11.9407 2.28516 11.429 2.79683 11.429 3.42801C11.429 4.0592 11.9407 4.57087 12.5718 4.57087ZM18.2861 3.42801C18.2861 4.0592 17.7745 4.57087 17.1433 4.57087C16.5121 4.57087 16.0004 4.0592 16.0004 3.42801C16.0004 2.79683 16.5121 2.28516 17.1433 2.28516C17.7745 2.28516 18.2861 2.79683 18.2861 3.42801ZM5.71512 6.85603C6.34631 6.85603 6.85798 6.34435 6.85798 5.71317C6.85798 5.08199 6.34631 4.57031 5.71512 4.57031C5.08394 4.57031 4.57227 5.08199 4.57227 5.71317C4.57227 6.34435 5.08394 6.85603 5.71512 6.85603ZM11.4293 5.71317C11.4293 6.34435 10.9176 6.85603 10.2864 6.85603C9.65523 6.85603 9.14355 6.34435 9.14355 5.71317C9.14355 5.08199 9.65523 4.57031 10.2864 4.57031C10.9176 4.57031 11.4293 5.08199 11.4293 5.71317ZM14.8577 6.85603C15.4889 6.85603 16.0006 6.34435 16.0006 5.71317C16.0006 5.08199 15.4889 4.57031 14.8577 4.57031C14.2265 4.57031 13.7148 5.08199 13.7148 5.71317C13.7148 6.34435 14.2265 6.85603 14.8577 6.85603ZM18.2857 8.00028C18.2857 8.63146 17.774 9.14314 17.1429 9.14314C16.5117 9.14314 16 8.63146 16 8.00028C16 7.3691 16.5117 6.85742 17.1429 6.85742C17.774 6.85742 18.2857 7.3691 18.2857 8.00028ZM12.5716 9.14314C13.2028 9.14314 13.7144 8.63146 13.7144 8.00028C13.7144 7.3691 13.2028 6.85742 12.5716 6.85742C11.9404 6.85742 11.4287 7.3691 11.4287 8.00028C11.4287 8.63146 11.9404 9.14314 12.5716 9.14314ZM9.14314 8.00028C9.14314 8.63146 8.63146 9.14314 8.00028 9.14314C7.3691 9.14314 6.85742 8.63146 6.85742 8.00028C6.85742 7.3691 7.3691 6.85742 8.00028 6.85742C8.63146 6.85742 9.14314 7.3691 9.14314 8.00028ZM3.42899 9.14314C4.06017 9.14314 4.57185 8.63146 4.57185 8.00028C4.57185 7.3691 4.06017 6.85742 3.42899 6.85742C2.79781 6.85742 2.28613 7.3691 2.28613 8.00028C2.28613 8.63146 2.79781 9.14314 3.42899 9.14314ZM6.85756 10.2852C6.85756 10.9163 6.34589 11.428 5.7147 11.428C5.08352 11.428 4.57185 10.9163 4.57185 10.2852C4.57185 9.65397 5.08352 9.1423 5.7147 9.1423C6.34589 9.1423 6.85756 9.65397 6.85756 10.2852ZM10.2861 11.428C10.9173 11.428 11.429 10.9163 11.429 10.2852C11.429 9.65397 10.9173 9.1423 10.2861 9.1423C9.65495 9.1423 9.14328 9.65397 9.14328 10.2852C9.14328 10.9163 9.65495 11.428 10.2861 11.428ZM16.0004 10.2852C16.0004 10.9163 15.4887 11.428 14.8576 11.428C14.2264 11.428 13.7147 10.9163 13.7147 10.2852C13.7147 9.65397 14.2264 9.1423 14.8576 9.1423C15.4887 9.1423 16.0004 9.65397 16.0004 10.2852ZM17.1433 13.7137C17.7745 13.7137 18.2861 13.2021 18.2861 12.5709C18.2861 11.9397 17.7745 11.428 17.1433 11.428C16.5121 11.428 16.0004 11.9397 16.0004 12.5709C16.0004 13.2021 16.5121 13.7137 17.1433 13.7137ZM13.7147 12.5709C13.7147 13.2021 13.203 13.7137 12.5718 13.7137C11.9407 13.7137 11.429 13.2021 11.429 12.5709C11.429 11.9397 11.9407 11.428 12.5718 11.428C13.203 11.428 13.7147 11.9397 13.7147 12.5709ZM8.00042 13.7137C8.6316 13.7137 9.14328 13.2021 9.14328 12.5709C9.14328 11.9397 8.6316 11.428 8.00042 11.428C7.36924 11.428 6.85756 11.9397 6.85756 12.5709C6.85756 13.2021 7.36924 13.7137 8.00042 13.7137ZM4.57185 12.5709C4.57185 13.2021 4.06017 13.7137 3.42899 13.7137C2.79781 13.7137 2.28613 13.2021 2.28613 12.5709C2.28613 11.9397 2.79781 11.428 3.42899 11.428C4.06017 11.428 4.57185 11.9397 4.57185 12.5709Z" fill="url(#paint0_linear_3032_1735)"/>
</g>
</g>
<defs>
<filter id="filter0_d_3032_1735" x="2.28613" y="2.28516" width="16" height="12.4285" filterUnits="userSpaceOnUse" color-interpolation-filters="sRGB">
<feFlood flood-opacity="0" result="BackgroundImageFix"/>
<feColorMatrix in="SourceAlpha" type="matrix" values="0 0 0 0 0 0 0 0 0 0 0 0 0 0 0 0 0 0 127 0" result="hardAlpha"/>
<feOffset dy="1"/>
<feColorMatrix type="matrix" values="0 0 0 0 0 0 0 0 0 0 0 0 0 0 0 0 0 0 0.06 0"/>
<feBlend mode="normal" in2="BackgroundImageFix" result="effect1_dropShadow_3032_1735"/>
<feBlend mode="normal" in="SourceGraphic" in2="effect1_dropShadow_3032_1735" result="shape"/>
</filter>
<linearGradient id="paint0_linear_3032_1735" x1="2.28613" y1="2.28516" x2="2.28613" y2="13.7137" gradientUnits="userSpaceOnUse">
<stop stop-color="white"/>
<stop offset="1" stop-color="#F0F0F0"/>
</linearGradient>
</defs>
</svg>